<?xml version="1.0" standalone="no"?>
<!DOCTYPE svg PUBLIC "-//W3C//DTD SVG 20010904//EN"
 "http://www.w3.org/TR/2001/REC-SVG-20010904/DTD/svg10.dtd">
<svg version="1.0" xmlns="http://www.w3.org/2000/svg"
 width="512.000000pt" height="512.000000pt" viewBox="0 0 512.000000 512.000000"
 preserveAspectRatio="xMidYMid meet">

<g transform="translate(0.000000,512.000000) scale(0.100000,-0.100000)" fill="#fff" color="#fff" stroke="none">
<path d="M945 5114 c-635 -94 -1093 -763 -900 -1315 39 -113 89 -185 228 -326
l129 -131 -70 -139 c-123 -243 -198 -437 -257 -668 -56 -219 -70 -326 -69
-550 0 -177 3 -214 27 -326 59 -282 181 -537 362 -759 82 -101 259 -268 371
-352 387 -287 856 -461 1429 -530 161 -19 615 -16 780 6 545 71 1000 244 1379
524 121 90 341 307 421 416 166 226 274 476 320 741 75 427 -32 953 -302 1488
l-75 149 125 126 c68 70 141 153 161 185 183 288 143 696 -100 1019 -310 414
-850 566 -1229 346 -49 -29 -116 -86 -222 -191 l-152 -150 -83 31 c-426 158
-855 161 -1286 10 l-114 -40 -147 145 c-169 168 -238 215 -370 258 -80 26
-116 31 -211 34 -63 2 -128 1 -145 -1z m269 -427 c37 -17 87 -56 148 -115 l91
-89 -89 -61 c-202 -140 -465 -391 -643 -614 -52 -65 -97 -118 -101 -118 -20 0
-164 167 -187 215 -112 246 84 624 395 762 133 59 284 66 386 20z m2960 18
c39 -8 108 -34 155 -57 71 -34 103 -59 182 -137 78 -79 103 -111 137 -182 77
-156 91 -309 39 -424 -23 -48 -167 -215 -187 -215 -4 0 -49 53 -101 118 -177
223 -429 463 -638 610 l-94 66 90 87 c49 48 109 97 131 108 83 42 172 50 286
26z m-1328 -304 c583 -119 1156 -602 1544 -1301 165 -296 287 -658 320 -945
84 -739 -432 -1380 -1322 -1640 -267 -78 -506 -110 -828 -110 -323 0 -559 32
-826 110 -894 263 -1408 899 -1324 1640 33 288 155 648 320 945 414 747 1035
1242 1656 1320 111 14 346 4 460 -19z"/>
<path d="M1528 3140 c-166 -28 -323 -108 -452 -229 -251 -239 -344 -648 -217
-960 101 -248 370 -435 600 -418 154 12 275 101 406 297 53 80 109 144 236
270 176 175 216 231 244 335 40 156 -8 308 -143 456 -177 193 -437 289 -674
249z m197 -405 c22 -7 32 -13 22 -14 -10 -1 -34 -10 -55 -20 -98 -50 -137
-159 -93 -256 20 -46 79 -102 116 -111 14 -3 25 -8 25 -11 0 -2 -21 -25 -46
-51 -26 -25 -82 -100 -126 -166 -89 -134 -124 -176 -148 -176 -21 0 -105 53
-137 88 -14 15 -38 52 -52 82 -36 76 -37 222 -2 323 77 226 311 373 496 312z"/>
<path d="M3329 3136 c-150 -32 -286 -110 -409 -235 -179 -183 -217 -387 -108
-580 20 -36 90 -114 197 -221 125 -124 183 -190 234 -267 91 -137 166 -211
259 -258 136 -67 266 -59 429 26 248 129 396 405 376 702 -28 396 -276 715
-638 817 -96 27 -252 34 -340 16z m307 -431 c138 -68 224 -181 260 -342 29
-133 2 -270 -69 -345 -33 -35 -116 -88 -138 -88 -24 0 -66 51 -152 182 -40 62
-94 134 -120 160 -26 25 -47 49 -47 51 0 3 11 8 25 11 37 9 96 65 116 111 44
97 5 206 -93 256 -21 10 -45 19 -55 20 -10 1 0 7 22 15 70 24 164 12 251 -31z"/>
<path d="M2345 1679 c-207 -30 -244 -98 -155 -284 50 -103 123 -192 200 -244
75 -49 128 -65 197 -58 144 15 316 189 374 380 24 78 20 109 -21 147 -32 30
-76 45 -175 60 -83 12 -335 11 -420 -1z"/>
</g>
</svg>
